Coordinates
version=1
nRows=8
nColumns=40
inDegrees=yes

Units are S.I. units (second, meters, Newtons, ...)
Angles are in degrees.

endheader
time	pelvis_tilt	pelvis_list	pelvis_rotation	pelvis_tx	pelvis_ty	pelvis_tz	hip_flexion_r	hip_adduction_r	hip_rotation_r	knee_angle_r	knee_angle_r_beta	ankle_angle_r	subtalar_angle_r	mtp_angle_r	hip_flexion_l	hip_adduction_l	hip_rotation_l	knee_angle_l	knee_angle_l_beta	ankle_angle_l	subtalar_angle_l	mtp_angle_l	lumbar_extension	lumbar_bending	lumbar_rotation	arm_flex_r	arm_add_r	arm_rot_r	elbow_flex_r	pro_sup_r	wrist_flex_r	wrist_dev_r	arm_flex_l	arm_add_l	arm_rot_l	elbow_flex_l	pro_sup_l	wrist_flex_l	wrist_dev_l
     22.14000000	     -6.34081406	     -5.22636066	      3.15720561	      0.83011643	      0.91702909	      0.49617605	     -1.33286120	      3.95804083	    -17.58450092	      8.07467997	      8.07467997	     16.46201599	      6.07021497	     -3.93823830	     33.21470106	     -7.06971277	     -4.47764697	     17.21332806	     17.21332806	      2.67706698	     -9.05912515	      7.69705325	     -7.31770464	      6.92360045	      3.32436216	     46.77235293	    -18.18417509	     -7.87789215	     94.88048982	     44.40243732	      0.00000000	      0.00000000	    -11.35415020	     -7.01471393	      5.66781785	     23.00114794	     44.72027490	      0.00000000	      0.00000000
     22.15200000	     -6.37410821	     -5.32895795	      3.13992538	      0.83176040	      0.91575046	      0.49388009	     -1.92812783	      3.88504949	    -17.91941309	      8.11860271	      8.11860271	     16.99525028	      6.83359495	     -3.41243565	     32.94659970	     -6.95749365	     -4.28730592	     17.77257063	     17.77257063	      1.82416438	    -10.67149284	      7.25203097	     -7.14071163	      7.10223654	      3.23740923	     46.76495196	    -18.17161260	     -7.95895993	     95.83270287	     44.39344255	      0.00000000	      0.00000000	    -11.70723514	     -6.99335722	      5.77290277	     23.26395942	     44.70898326	      0.00000000	      0.00000000
     22.16400000	     -6.36361831	     -5.22567502	      3.00125550	      0.83358310	      0.91468365	      0.49170339	     -2.50240381	      3.59107772	    -17.78601376	      8.29277186	      8.29277186	     17.36691438	      6.92643251	     -3.35354609	     32.61574418	     -6.82776524	     -4.67350964	     18.48032628	     18.48032628	      1.50310185	    -11.36694555	      7.10380976	     -6.97327356	      6.95638940	      3.24836958	     46.59981859	    -18.22078668	     -8.02531198	     95.91547547	     44.39701982	      0.00000000	      0.00000000	    -11.86522075	     -6.99478424	      5.79233875	     23.27040525	     44.70684992	      0.00000000	      0.00000000
     22.17600000	     -6.38988764	     -5.18622113	      2.91040201	      0.83531466	      0.91363954	      0.48927699	     -2.83847442	      3.26038431	    -17.88683155	      8.90049286	      8.90049286	     18.24789662	      7.30142368	     -2.09197437	     32.32580549	     -6.63168852	     -4.48346758	     19.07234298	     19.07234298	      0.44812082	    -12.89774987	      5.56275773	     -6.82434758	      6.94487879	      3.43441328	     46.01691753	    -18.41774929	     -8.63117446	     96.63645454	     44.43715012	      0.00000000	      0.00000000	    -11.86688117	     -7.08362702	      5.97116996	     23.60771198	     44.72278421	      0.00000000	      0.00000000
     22.18800000	     -6.35943325	     -5.08841360	      2.79494398	      0.83714629	      0.91292133	      0.48695515	     -3.35448068	      2.94474447	    -17.70599905	      9.20073477	      9.20073477	     18.49438071	      7.22947207	     -2.09289237	     32.13428020	     -6.51247402	     -4.61128866	     20.03888403	     20.03888403	      0.45155612	    -13.47663329	      5.32493354	     -6.69631351	      6.82324164	      3.31145311	     45.55312669	    -18.36467422	     -8.64696732	     96.53962555	     44.44376328	      0.00000000	      0.00000000	    -11.81406202	     -7.10866463	      5.99297253	     23.58945011	     44.72601104	      0.00000000	      0.00000000
     22.20000000	     -6.28204393	     -4.94627837	      2.71196582	      0.83893999	      0.91253713	      0.48449743	     -3.83134706	      2.54827098	    -17.51872791	      9.66326327	      9.66326327	     18.68258906	      7.06940992	     -2.12307869	     31.91279834	     -6.32379878	     -4.60927674	     21.02456440	     21.02456440	      0.62767927	    -14.05007429	      5.04736184	     -6.64239177	      6.65254234	      3.13831333	     44.85694627	    -18.26310629	     -8.66342763	     96.37734157	     44.44982448	      0.00000000	      0.00000000	    -11.61599873	     -7.12616840	      6.00269794	     23.62726558	     44.73207710	      0.00000000	      0.00000000
     22.21200000	     -6.39964817	     -4.90349800	      2.60793506	      0.84041429	      0.91200000	      0.48205319	     -3.67079543	      2.13762569	    -17.20870965	     10.90582824	     10.90582824	     19.00086569	      6.39884994	     -2.19062125	     32.05500155	     -6.21345392	     -4.44435872	     22.21244029	     22.21244029	      0.92978611	    -14.77386651	      4.64783398	     -6.38728458	      6.60849758	      3.13284218	     44.01780049	    -18.29117534	     -9.05206570	     96.13826291	     44.47774902	      0.00000000	      0.00000000	    -11.23411935	     -7.20156457	      6.00884390	     23.63634755	     44.75356490	      0.00000000	      0.00000000
     22.22400000	     -6.35032071	     -4.73913393	      2.48927721	      0.84206908	      0.91215213	      0.47958945	     -3.71359451	      1.62006870	    -16.79890282	     12.09335363	     12.09335363	     19.14645483	      5.64993580	     -2.29373995	     31.81759823	     -5.99125409	     -4.33630837	     23.09948734	     23.09948734	      1.48960980	    -15.25601225	      4.42614883	     -6.31381221	      6.36426125	      3.09740840	     42.83443433	    -18.21571654	     -9.42841319	     95.85152117	     44.50765650	      0.00000000	      0.00000000	    -10.70691056	     -7.31331439	      6.01405464	     23.59298904	     44.78220364	      0.00000000	      0.00000000
